<?xml version="1.0" encoding="utf-8"?>
<!-- Generator: Adobe Illustrator 17.1.0, SVG Export Plug-In . SVG Version: 6.00 Build 0)  -->
<!DOCTYPE svg PUBLIC "-//W3C//DTD SVG 1.1//EN" "http://www.w3.org/Graphics/SVG/1.1/DTD/svg11.dtd">
<svg version="1.1" id="PlugShare_Logo" xmlns="http://www.w3.org/2000/svg" xmlns:xlink="http://www.w3.org/1999/xlink" x="0px"
	 y="0px" viewBox="0 0 300 300" enable-background="new 0 0 300 300" xml:space="preserve">
<path id="_x31_" fill="#003CA6" d="M300,229.6871948C300,268.5198975,268.5198975,300,229.6871948,300H70.3127975
	C31.4801121,300,0,268.5198975,0,229.6871948V70.3127975C0,31.4801121,31.4801121,0,70.3127975,0h159.3743896
	C268.5198975,0,300,31.4801121,300,70.3127975V229.6871948z"/>
<path id="_x32_" fill="#FFFFFF" d="M132.4217987,261.3286133c-0.0201874-1.3834229-0.0775299-2.6308289-0.1044922-3.7014771
	c-0.1626892-6.4600983,1.4753876-12.5812988,3.7580719-18.5619202c0.2539825-0.6654663,0.6860352-1.5770569,0.6860352-1.5770569
	s1.617569,0.1818085,2.4061279,0.2369232c10.1170349,0.7073212,20.0498657,0.0280762,29.7302856-3.4360046
	c11.7399445-4.2010803,21.3942108-11.1806183,28.9878387-21.0007782
	c8.4464569-10.9230042,15.6776428-22.6208496,21.7526703-35.0213623
	c6.8288269-13.9391479,13.4302368-27.9930267,20.4703979-41.8240356c4.1977234-8.2467499,3.9461823-16.1063995-0.3753052-24.0451584
	c-2.1074677-3.8715134-4.6592255-7.4219284-7.6283417-10.7036133
	c-10.6156006-11.733078-23.1847839-20.8392487-37.1893005-28.0871658
	c-17.0865326-8.8429718-34.8744049-15.6945267-53.8320618-19.3014984
	c-7.3721008-1.4026527-14.7841949-1.2622871-22.1485825-0.1706467c-8.1447525,1.2073174-14.6259155,5.2156372-18.9610748,12.3749466
	c-0.8082962,1.3348465-1.6071091,2.6811981-2.311821,4.0721283c-8.3823853,16.5446243-16.7408752,33.1013565-25.1174011,49.6489563
	c-3.1360397,6.1951599-5.7556839,12.5978394-8.0364914,19.1567535c-3.688633,10.6074066-4.1439247,21.4601593-2.137989,32.3647156
	c1.9856606,10.7943878,4.8412361,21.3625183,11.6948128,30.322525c0.3871307,0.5061035,1.0535202,1.2182312,1.0535202,1.2182312
	s-0.5980835,1.6520538-0.806488,2.3749695c-2.8403244,9.8526611-5.524086,19.7483215-6.6687469,29.9715729
	c-0.7802048,6.9682312-0.8835678,10.6742706-0.8469467,17.5590668c0.0760345,0.9352722,0.1710129,3.919693,0.2288895,6.6009674
	l-0.0023346,0.0026855c-16.3875351-4.7163086-28.3516769-19.8237305-28.3516769-37.73172V77.9293823
	c0-21.6815872,17.5764008-39.2579842,39.257988-39.2579842h144.1412354c21.6815796,0,39.2579956,17.5763969,39.2579956,39.2579842
	v144.1412354c0,21.6815796-17.576416,39.2579956-39.2579956,39.2579956H132.4217987L132.4217987,261.3286133z"/>
<path id="_x33_" fill="#FFFFFF" d="M128.530899,64.4699783c8.3137512-0.1690063,15.9562378,1.3668823,23.4600372,3.6081772
	c18.3377533,5.4772491,35.7656097,13.0060501,51.720108,23.6706619c8.1354675,5.4380722,15.7215881,11.565918,21.8652954,19.2942276
	c3.0175781,3.7958984,5.3717804,7.8690262,5.9788208,12.8212585c0.7497101,6.1162567-2.2593384,11.2456055-8.019104,13.4108734
	c-4.2814636,1.6095428-8.7729645,1.9628601-13.2558289,1.9349823c-13.0984192-0.0814362-25.8488312-2.3849335-38.1005554-6.9932709
	c-15.6567383-5.8890762-30.8490753-12.7931442-44.4281387-22.7314758
	c-6.9109268-5.0580063-12.5301514-11.4188919-17.1628036-18.639679c-2.9913712-4.6625824-4.1676636-9.5308228-2.5657349-15.0443649
	c1.7407455-5.991394,5.5434723-9.4517136,11.6085892-10.5786133
	C122.7140656,64.650032,125.8114166,64.3184509,128.530899,64.4699783z M209.2531891,124.9998932
	c0.9033203-0.7324219,3.5888824-3.2226715,3.5888824-7.7148743c-0.6225739-4.2724838-2.7099762-7.4585266-7.4341278-9.9121552
	c-1.940918-0.9521484-4.7241364-2.3193436-7.2888336-3.5734711c-0.8715515-0.4261856-1.9216461-0.037529-2.3364258,0.8395081
	l-7.4535522,15.7601166c-0.4158325,0.8792496-0.0398865,1.9286118,0.8405304,2.3420029
	c1.2211761,0.5733948,3.3587952,1.5812225,7.0829773,3.3453064c1.9902039,0.9043503,4.1664886,1.1871033,5.5175934,1.1962891
	C205.3591156,127.3070297,208.3498535,125.7323151,209.2531891,124.9998932z M173.3420715,110.6705322
	c0.4255829-0.8725662,0.0632324-1.9249191-0.8093414-2.3504944l-38.4446716-18.7507172
	c-0.8725586-0.4255829-1.9249115-0.0632248-2.3504944,0.8093338l-2.3117371,4.7397614
	c-0.4255829,0.8725586-0.0632172,1.9249115,0.8093414,2.3504944l38.4446716,18.7507172
	c0.8725739,0.4255829,1.9249268,0.0632248,2.3504944-0.8093414L173.3420715,110.6705322z M181.0478516,94.8713531
	c0.4255829-0.8725662,0.0632172-1.9249191-0.8093414-2.3504944L141.7938385,73.770134
	c-0.8725739-0.4255753-1.9249268-0.0632248-2.3504944,0.8093414l-2.3117371,4.7397537
	c-0.4255829,0.8725662-0.0632324,1.9249191,0.8093414,2.3504944l38.4446716,18.7507248
	c0.8725586,0.4255753,1.9249115,0.0632248,2.3504944-0.8093414L181.0478516,94.8713531z"/>
</svg>
